HIERARCHY
ROOT Hips
{
    OFFSET   0.000000   0.000000   0.000000
    CHANNELS 6 Xposition Yposition Zposition Zrotation Xrotation Yrotation
    JOINT Chest
    {
        OFFSET   0.000000   8.007230   0.000000
        CHANNELS 3 Zrotation Xrotation Yrotation
        JOINT Chest2
        {
            OFFSET   0.000000  22.077100   0.000000
            CHANNELS 3 Zrotation Xrotation Yrotation
            JOINT Neck
            {
                OFFSET   0.000000  23.254800   0.000000
                CHANNELS 3 Zrotation Xrotation Yrotation
                JOINT Head
                {
                    OFFSET   0.000010  14.370000   1.956600
                    CHANNELS 3 Zrotation Xrotation Yrotation
                    End Site
                    {
                        OFFSET   0.000000  19.566000   0.000000
                    }
                }
            }
            JOINT LeftCollar
            {
                OFFSET   3.911900  19.017000  -0.467062
                CHANNELS 3 Zrotation Xrotation Yrotation
                JOINT LeftShoulder
                {
                    OFFSET  10.383700   0.000000   0.000000
                    CHANNELS 3 Zrotation Xrotation Yrotation
                    JOINT LeftElbow
                    {
                        OFFSET  26.662100   0.001193   0.000835
                        CHANNELS 3 Zrotation Xrotation Yrotation
                        JOINT LeftWrist
                        {
                            OFFSET  28.869000  -0.000058  -0.000075
                            CHANNELS 3 Zrotation Xrotation Yrotation
                            JOINT LeftFinger0
                            {
                                OFFSET   2.044660  -2.323460   3.252850
                                CHANNELS 3 Zrotation Xrotation Yrotation
                                JOINT LeftFinger01
                                {
                                    OFFSET   3.088130   0.000000   0.000000
                                    CHANNELS 3 Zrotation Xrotation Yrotation
                                    JOINT LeftFinger02
                                    {
                                        OFFSET   2.639450   0.000000   0.000000
                                        CHANNELS 3 Zrotation Xrotation Yrotation
                                        End Site
                                        {
                                            OFFSET   2.582190   0.000000   0.000000
                                        }
                                    }
                                }
                            }
                            JOINT LeftFinger1
                            {
                                OFFSET   8.364480   0.000000   3.252850
                                CHANNELS 3 Zrotation Xrotation Yrotation
                                JOINT LeftFinger11
                                {
                                    OFFSET   4.646920   0.000000   0.000000
                                    CHANNELS 3 Zrotation Xrotation Yrotation
                                    JOINT LeftFinger12
                                    {
                                        OFFSET   2.323460   0.000000   0.000000
                                        CHANNELS 3 Zrotation Xrotation Yrotation
                                        End Site
                                        {
                                            OFFSET   2.273050   0.000000   0.000000
                                        }
                                    }
                                }
                            }
                            JOINT LeftFinger2
                            {
                                OFFSET   8.364490   0.000016   1.078090
                                CHANNELS 3 Zrotation Xrotation Yrotation
                                JOINT LeftFinger21
                                {
                                    OFFSET   5.111620   0.000000   0.000000
                                    CHANNELS 3 Zrotation Xrotation Yrotation
                                    JOINT LeftFinger22
                                    {
                                        OFFSET   2.788150   0.000012   0.000000
                                        CHANNELS 3 Zrotation Xrotation Yrotation
                                        End Site
                                        {
                                            OFFSET   2.727660   0.000000   0.000000
                                        }
                                    }
                                }
                            }
                            JOINT LeftFinger3
                            {
                                OFFSET   7.899780   0.000014  -1.078090
                                CHANNELS 3 Zrotation Xrotation Yrotation
                                JOINT LeftFinger31
                                {
                                    OFFSET   4.646930   0.000000   0.000000
                                    CHANNELS 3 Zrotation Xrotation Yrotation
                                    JOINT LeftFinger32
                                    {
                                        OFFSET   2.323470   0.000000   0.000000
                                        CHANNELS 3 Zrotation Xrotation Yrotation
                                        End Site
                                        {
                                            OFFSET   2.273050   0.000000   0.000000
                                        }
                                    }
                                }
                            }
                            JOINT LeftFinger4
                            {
                                OFFSET   7.435090   0.000000  -3.252850
                                CHANNELS 3 Zrotation Xrotation Yrotation
                                JOINT LeftFinger41
                                {
                                    OFFSET   3.717550   0.000000   0.000000
                                    CHANNELS 3 Zrotation Xrotation Yrotation
                                    JOINT LeftFinger42
                                    {
                                        OFFSET   1.858770   0.000000   0.000000
                                        CHANNELS 3 Zrotation Xrotation Yrotation
                                        End Site
                                        {
                                            OFFSET   1.818440   0.000000   0.000000
                                        }
                                    }
                                }
                            }
                        }
                    }
                }
            }
            JOINT RightCollar
            {
                OFFSET  -3.911900  19.017000  -0.467063
                CHANNELS 3 Zrotation Xrotation Yrotation
                JOINT RightShoulder
                {
                    OFFSET -10.383700   0.000023   0.000000
                    CHANNELS 3 Zrotation Xrotation Yrotation
                    JOINT RightElbow
                    {
                        OFFSET -26.662100   0.001246   0.001011
                        CHANNELS 3 Zrotation Xrotation Yrotation
                        JOINT RightWrist
                        {
                            OFFSET -28.869000  -0.000026  -0.000078
                            CHANNELS 3 Zrotation Xrotation Yrotation
                            JOINT RightFinger0
                            {
                                OFFSET  -2.044660  -2.323490   3.252850
                                CHANNELS 3 Zrotation Xrotation Yrotation
                                JOINT RightFinger01
                                {
                                    OFFSET  -3.088130   0.000000   0.000000
                                    CHANNELS 3 Zrotation Xrotation Yrotation
                                    JOINT RightFinger02
                                    {
                                        OFFSET  -2.639460   0.000000   0.000000
                                        CHANNELS 3 Zrotation Xrotation Yrotation
                                        End Site
                                        {
                                            OFFSET  -2.582190   0.000000   0.000000
                                        }
                                    }
                                }
                            }
                            JOINT RightFinger1
                            {
                                OFFSET  -8.364480   0.000000   3.252850
                                CHANNELS 3 Zrotation Xrotation Yrotation
                                JOINT RightFinger11
                                {
                                    OFFSET  -4.646920   0.000000   0.000000
                                    CHANNELS 3 Zrotation Xrotation Yrotation
                                    JOINT RightFinger12
                                    {
                                        OFFSET  -2.323470   0.000000   0.000000
                                        CHANNELS 3 Zrotation Xrotation Yrotation
                                        End Site
                                        {
                                            OFFSET  -2.273050   0.000000   0.000000
                                        }
                                    }
                                }
                            }
                            JOINT RightFinger2
                            {
                                OFFSET  -8.364480   0.000000   1.078090
                                CHANNELS 3 Zrotation Xrotation Yrotation
                                JOINT RightFinger21
                                {
                                    OFFSET  -5.111620   0.000000   0.000000
                                    CHANNELS 3 Zrotation Xrotation Yrotation
                                    JOINT RightFinger22
                                    {
                                        OFFSET  -2.788160   0.000000   0.000000
                                        CHANNELS 3 Zrotation Xrotation Yrotation
                                        End Site
                                        {
                                            OFFSET  -2.727660   0.000000   0.000000
                                        }
                                    }
                                }
                            }
                            JOINT RightFinger3
                            {
                                OFFSET  -7.899780   0.000000  -1.078090
                                CHANNELS 3 Zrotation Xrotation Yrotation
                                JOINT RightFinger31
                                {
                                    OFFSET  -4.646930   0.000000   0.000000
                                    CHANNELS 3 Zrotation Xrotation Yrotation
                                    JOINT RightFinger32
                                    {
                                        OFFSET  -2.323470   0.000000   0.000000
                                        CHANNELS 3 Zrotation Xrotation Yrotation
                                        End Site
                                        {
                                            OFFSET  -2.273050   0.000000   0.000000
                                        }
                                    }
                                }
                            }
                            JOINT RightFinger4
                            {
                                OFFSET  -7.435090   0.000000  -3.252850
                                CHANNELS 3 Zrotation Xrotation Yrotation
                                JOINT RightFinger41
                                {
                                    OFFSET  -3.717550   0.000000   0.000000
                                    CHANNELS 3 Zrotation Xrotation Yrotation
                                    JOINT RightFinger42
                                    {
                                        OFFSET  -1.858760   0.000000   0.000000
                                        CHANNELS 3 Zrotation Xrotation Yrotation
                                        End Site
                                        {
                                            OFFSET  -1.818440   0.000000   0.000000
                                        }
                                    }
                                }
                            }
                        }
                    }
                }
            }
        }
    }
    JOINT LeftHip
    {
        OFFSET   9.783010   0.000000   0.000000
        CHANNELS 3 Zrotation Xrotation Yrotation
        JOINT LeftKnee
        {
            OFFSET   0.000073 -41.789100   0.001749
            CHANNELS 3 Zrotation Xrotation Yrotation
            JOINT LeftAnkle
            {
                OFFSET   0.000111 -41.133200  -0.000179
                CHANNELS 3 Zrotation Xrotation Yrotation
                JOINT LeftToe
                {
                    OFFSET   0.000000  -6.358960  14.674500
                    CHANNELS 3 Zrotation Xrotation Yrotation
                    End Site
                    {
                        OFFSET   0.000000   0.000000   3.913200
                    }
                }
            }
        }
    }
    JOINT RightHip
    {
        OFFSET  -9.783010   0.000000   0.000000
        CHANNELS 3 Zrotation Xrotation Yrotation
        JOINT RightKnee
        {
            OFFSET   0.000424 -41.789200   0.005205
            CHANNELS 3 Zrotation Xrotation Yrotation
            JOINT RightAnkle
            {
                OFFSET   0.000000 -41.133200  -0.000155
                CHANNELS 3 Zrotation Xrotation Yrotation
                JOINT RightToe
                {
                    OFFSET   0.000000  -6.358960  14.674500
                    CHANNELS 3 Zrotation Xrotation Yrotation
                    End Site
                    {
                        OFFSET   0.000000   0.000000   3.913200
                    }
                }
            }
        }
    }
}
MOTION
Frames: 4
Frame Time:   0.016667
 -1.018890  89.538400   0.938893  -3.580830 -11.042200  -2.166820   0.552376   5.757330   0.566142   1.055280  11.519700   1.084430   0.314269  -2.664210   0.023858   0.522695  -5.402070  -0.633387  -7.120060  -2.762460   0.356218 -73.847800  14.074800   3.914720   0.190522  -0.550914 -22.185400  13.610800 -10.402800   4.596180  37.079900  33.894400 -57.615200 -37.485900  -0.000257  -0.000171 -14.339600   0.013034  -0.001085 -25.839100   4.338770  -8.879140 -21.416800  -0.004400   0.002886 -14.991700   0.000226   0.002989 -27.266700  -2.133400   4.131080 -28.465100  -0.000565   0.002764 -18.957800  -0.001017   0.001630 -22.446400  -1.981730   4.785010 -22.529100  -0.000735   0.005255 -15.004400  -0.001537   0.002692 -26.170100  -3.122970   6.326240 -39.513900  -0.004796   0.002319 -26.316300  -0.008775  -0.000107  11.280000  -1.479360   8.651170  71.550700   9.005090  -6.637050  -3.789370  -3.256720  16.695600 -14.919700  -5.189770   2.438180 -35.074600  29.206800  62.309500  34.701300  -0.005875  -0.002399  12.350600  -0.008775  -0.001338  29.489700   6.915430  12.019000  24.724300  -0.000959   0.003712  17.307600  -0.005002   0.002673  28.835900   2.330340   4.223740  43.382700  -0.000181   0.003280  28.892900   0.006200   0.001941  28.669500   2.057080   3.735250  39.925700   0.000851   0.007949  26.590500  -0.001572   0.004618  37.461000  -0.376829  -0.493013  56.194000   0.001722   0.001707  37.425200   0.003203  -0.000221   2.283620  13.309400   5.787990   0.813606   0.106133   1.979830  -0.000396  -3.750870   3.016530  -0.000000   0.000000   0.000000   5.868030  10.984900  -0.067245  -2.989050   4.940010  -7.445830  -0.784212  -5.545590   1.616510   0.000000   0.000000  -0.000000
 -1.043240  89.538400   0.934700  -3.583310 -11.034800  -2.183530   0.552368   5.766880   0.563056   1.055510  11.538700   1.078150   0.319895  -2.679390   0.023829   0.530155  -5.432740  -0.588614  -7.112700  -2.751750   0.368840 -73.855000  14.242400   3.880120   0.177803  -0.591452 -22.113300  13.611500 -10.394400   4.625120  37.057300  33.905100 -57.784400 -37.508400  -0.000256  -0.000134 -14.348300   0.013056  -0.001098 -25.906600   4.334030  -8.845380 -21.471900  -0.004413   0.002886 -15.030300   0.000206   0.003003 -27.269300  -2.135350   4.134590 -28.481800  -0.000471   0.002783 -18.969000  -0.000963   0.001663 -22.508400  -2.020010   4.862440 -22.594200  -0.000678   0.005337 -15.047700  -0.001500   0.002835 -26.232400  -3.184110   6.424860 -39.617600  -0.004730   0.002359 -26.385300  -0.008819  -0.000069  11.280700  -1.485690   8.641610  71.553900   9.075600  -6.598740  -3.786270  -3.304480  16.699600 -14.908500  -5.190040   2.443890 -35.082300  29.201000  62.312600  34.684400  -0.005868  -0.002398  12.342200  -0.008777  -0.001330  29.493400   6.927160  12.036100  24.729000  -0.000950   0.003697  17.307400  -0.005011   0.002665  28.841100   2.339940   4.240170  43.391600  -0.000170   0.003269  28.898800   0.006197   0.001932  28.669100   2.057060   3.745310  39.945800   0.000861   0.007940  26.603900  -0.001572   0.004608  37.474000  -0.377087  -0.493013  56.213400   0.001733   0.001698  37.438100   0.003197  -0.000225   2.293530  13.328600   5.781850   0.818545   0.053722   2.011370  -0.018693  -3.723120   3.005700  -0.000000   0.000000   0.000000   5.869720  10.984800  -0.070233  -2.981200   4.922090  -7.438180  -0.773550  -5.532030   1.641090   0.000000   0.000000   0.000000
 -1.083140  89.538300   0.927605  -3.587280 -11.026900  -2.211690   0.552046   5.785180   0.555707   1.055480  11.575300   1.063240   0.328838  -2.706250   0.023773   0.542565  -5.486990  -0.500855  -7.094800  -2.731390   0.409923 -73.885000  14.572400   3.782510   0.138316  -0.744505 -21.974600  13.599700 -10.385300   4.704230  37.034900  33.915300 -57.953500 -37.530900  -0.000256  -0.000097 -14.356900   0.013113  -0.001121 -25.979500   4.312920  -8.774130 -21.527000  -0.004451   0.002885 -15.068900   0.000158   0.003037 -27.277300  -2.149050   4.159160 -28.520800  -0.000314   0.002815 -18.994900  -0.000875   0.001718 -22.612300  -2.074560   4.968490 -22.702300  -0.000582   0.005490 -15.119700  -0.001438   0.003099 -26.340200  -3.245220   6.523510 -39.787700  -0.004620   0.002426 -26.498600  -0.008912  -0.000000  11.282300  -1.498230   8.632070  71.559500   9.176470  -6.537110  -3.785130  -3.369660  16.719900 -14.891700  -5.192040   2.455920 -35.090000  29.195200  62.315600  34.658700  -0.005853  -0.002394  12.329300  -0.008786  -0.001322  29.496200   6.940230  12.057500  24.733700  -0.000925   0.003663  17.307200  -0.005031   0.002640  28.846400   2.349550   4.256590  43.400600  -0.000148   0.003238  28.904800   0.006187   0.001907  28.668800   2.057030   3.755370  39.967600   0.000885   0.007915  26.618400  -0.001572   0.004586  37.489600  -0.378169  -0.493014  56.236800   0.001763   0.001677  37.453700   0.003179  -0.000238   2.313340  13.347800   5.773340   0.825462   0.001313   2.061510  -0.047880  -3.695400   2.987750  -0.000000   0.000000  -0.000000   5.874520  10.984700  -0.076817  -2.966980   4.893130  -7.423190  -0.761735  -5.509810   1.680410   0.000000   0.000000   0.000000
 -1.113560  89.538300   0.921867  -3.589990 -11.026200  -2.235190   0.551172   5.803650   0.545655   1.054610  11.612100   1.042930   0.333438  -2.731210   0.023705   0.552108  -5.537460  -0.404430  -7.065970  -2.703500   0.487018 -73.970000  14.938600   3.623370   0.093903  -1.022780 -21.821500  13.540200 -10.408500   4.819140  36.871800  33.584200 -57.599100 -37.515200  -0.000259  -0.000143 -14.346000   0.013205  -0.001142 -25.973500   4.262360  -8.673690 -21.514600  -0.004515   0.002882 -15.060200   0.000087   0.003093 -27.283700  -2.246220   4.344640 -28.579000  -0.000157   0.002848 -19.033600  -0.000786   0.001775 -22.652600  -2.101450   5.005520 -22.745600  -0.000484   0.005690 -15.148600  -0.001376   0.003445 -26.401800  -3.244620   6.515990 -39.877400  -0.004512   0.002493 -26.558300  -0.009038   0.000087  11.280300  -1.512560   8.633530  71.566000   9.216310  -6.494570  -3.793180  -3.389480  16.769100 -14.880600  -5.205020   2.473000 -35.111500  29.221600  62.318100  34.640100  -0.005837  -0.002379  12.320000  -0.008810  -0.001329  29.493100   6.941810  12.062400  24.731800  -0.000883   0.003617  17.307900  -0.005056   0.002596  28.845700   2.349360   4.256270  43.399700  -0.000118   0.003184  28.904200   0.006167   0.001868  28.668800   2.056620   3.754630  39.968700   0.000919   0.007873  26.619100  -0.001576   0.004554  37.491300  -0.380568  -0.494216  56.239500   0.001813   0.001646  37.455500   0.003146  -0.000258   2.336780  13.338300   5.771290   0.828381   0.016269   2.096010  -0.069103  -3.699620   2.973050   0.000000   0.000000  -0.000000   5.882630  10.985300  -0.086852  -2.953120   4.870110  -7.406390  -0.760221  -5.490270   1.711390   0.000000   0.000000   0.000000
